<?xml version="1.0" encoding="utf-8"?>
<!-- Generator: Adobe Illustrator 24.0.1, SVG Export Plug-In . SVG Version: 6.00 Build 0)  -->
<svg version="1.1" id="Layer_1" xmlns="http://www.w3.org/2000/svg" xmlns:xlink="http://www.w3.org/1999/xlink" x="0px" y="0px"
	 viewBox="0 0 576 576" style="enable-background:new 0 0 576 576;" xml:space="preserve">
<style type="text/css">
	.st0{fill:url(#SVGID_1_);}
	.st1{fill:#FBD97B;}
</style>
<linearGradient id="SVGID_1_" gradientUnits="userSpaceOnUse" x1="262.398" y1="518.3727" x2="301.8289" y2="72.2407">
	<stop  offset="0" style="stop-color:#8A5302"/>
	<stop  offset="0.5" style="stop-color:#390C00"/>
	<stop  offset="0.9987" style="stop-color:#713604"/>
</linearGradient>
<path class="st0" d="M424.3,144l5.4-45.1c0.4-3.3-2.4-6.1-5.7-5.7l-90.2,9.4l0-0.1l-54.9,5.7c-31.5,3.3-56.2,28.5-58.7,60.1
	l-5.2,64.9c-0.2,2.5-2.1,4.5-4.6,4.7l-47,5c-2.4,0.3-4.3,2.1-4.6,4.5l-5.4,45.1c-0.4,3.3,2.4,6.1,5.7,5.7l44.9-4.8
	c3.2-0.3,5.9,2.3,5.7,5.5l0,0c-0.2,2.5-2.1,4.5-4.6,4.7l-49,5.2c-2.4,0.3-4.3,2.1-4.6,4.5l-5.4,45.1c-0.4,3.3,2.4,6.1,5.7,5.7l47-5
	c3.2-0.3,5.9,2.3,5.7,5.5l-10,124.7c-0.2,3.1,2.3,5.7,5.4,5.6l98.8-4.8c2.6-0.1,4.7-2.2,4.9-4.7l10.6-134.3c0.2-2.5,2.1-4.5,4.6-4.7
	l52.9-5.6c2.4-0.3,4.3-2.1,4.6-4.5l5.4-45.1c0.4-3.3-2.4-6.1-5.7-5.7l-50.9,5.4c-3.2,0.3-5.9-2.3-5.7-5.5l0,0
	c0.2-2.5,2.1-4.5,4.6-4.7l55-5.9c2.4-0.3,4.3-2.1,4.6-4.5l5.4-45.1c0.4-3.3-2.4-6.1-5.7-5.7l-53,5.7c-3.2,0.3-5.9-2.3-5.7-5.5
	l4.5-57.4c0.2-2.5,2.1-4.5,4.6-4.7l86-9C422.1,148.2,424.1,146.4,424.3,144z"/>
<path class="st1" d="M424.6,93.1c3,0,5.5,2.7,5.1,5.8l-5.4,45.1c-0.3,2.4-2.2,4.3-4.6,4.5l-86,9c-2.5,0.3-4.4,2.2-4.6,4.7l-4.5,57.4
	c-0.2,3,2.2,5.6,5.1,5.6c0.2,0,0.4,0,0.6,0l53-5.7c0.2,0,0.4,0,0.6,0c3,0,5.5,2.7,5.1,5.8l-5.4,45.1c-0.3,2.4-2.2,4.3-4.6,4.5
	l-55,5.9c-2.5,0.3-4.4,2.2-4.6,4.7v0c-0.2,3,2.2,5.6,5.1,5.6c0.2,0,0.4,0,0.6,0l50.9-5.4c0.2,0,0.4,0,0.6,0c3,0,5.5,2.7,5.1,5.8
	l-5.4,45.1c-0.3,2.4-2.2,4.3-4.6,4.5l-52.9,5.6c-2.5,0.3-4.4,2.2-4.6,4.7l-10.6,134.3c-0.2,2.6-2.3,4.6-4.9,4.7L200,495
	c-0.1,0-0.2,0-0.3,0c-3,0-5.4-2.6-5.1-5.6l10-124.7c0.2-3-2.2-5.6-5.1-5.6c-0.2,0-0.4,0-0.6,0l-47,5c-0.2,0-0.4,0-0.6,0
	c-3,0-5.5-2.7-5.1-5.8l5.4-45.1c0.3-2.4,2.2-4.3,4.6-4.5l49-5.2c2.5-0.3,4.4-2.2,4.6-4.7v0c0.2-3-2.2-5.6-5.1-5.6
	c-0.2,0-0.4,0-0.6,0l-44.9,4.8c-0.2,0-0.4,0-0.6,0c-3,0-5.5-2.7-5.1-5.8l5.4-45.1c0.3-2.4,2.2-4.3,4.6-4.5l47-5
	c2.5-0.3,4.4-2.2,4.6-4.7l5.2-64.9c2.5-31.5,27.2-56.8,58.7-60.1l54.9-5.7l0,0.1l90.2-9.4C424.2,93.2,424.4,93.1,424.6,93.1
	 M424.6,79.9c-0.6,0-1.3,0-1.9,0.1l-88.8,9.3c0,0,0,0,0,0c-0.5,0-0.9,0-1.4,0.1L277.6,95c-37.8,3.9-67.5,34.3-70.5,72.2l-4.7,58.2
	l-40.3,4.3c-8.6,0.9-15.3,7.6-16.3,16.1l-5.4,45.1c-0.5,3.9,0.3,7.9,2.3,11.3c-2.2,2.7-3.7,6-4.2,9.7l-5.4,45.1
	c-0.6,5.2,1,10.5,4.5,14.4c3.5,3.9,8.5,6.2,13.8,6.2c0.7,0,1.3,0,2-0.1l37.2-4l-9.2,114.9c-0.4,5.1,1.4,10.2,4.8,14
	c3.5,3.8,8.4,5.9,13.5,5.9c0.3,0,0.6,0,0.9,0l98.8-4.8c9.2-0.4,16.8-7.7,17.5-17l10-127.6l46.2-4.9c8.6-0.9,15.3-7.6,16.3-16.1
	l5.4-45.1c0.5-3.9-0.3-7.9-2.3-11.3c2.2-2.7,3.7-6,4.2-9.7l5.4-45.1c0.6-5.2-1-10.5-4.5-14.4c-3.5-3.9-8.5-6.2-13.8-6.2
	c-0.7,0-1.3,0-2,0.1l-43.3,4.6l3.2-40.9l79.3-8.3c8.6-0.9,15.4-7.5,16.4-16.1l5.4-45.1c0.6-5.2-1-10.5-4.5-14.4
	C434.9,82.1,429.9,79.9,424.6,79.9L424.6,79.9z"/>
</svg>
