<svg xmlns="http://www.w3.org/2000/svg" version="1.1" xmlns:xlink="http://www.w3.org/1999/xlink" xmlns:svgjs="http://svgjs.com/svgjs" width="512" height="512" x="0" y="0" viewBox="0 0 128 128" style="enable-background:new 0 0 512 512" xml:space="preserve" class=""><g><path d="M46 48a34 34 0 1 0 34 34 34 34 0 0 0-34-34zm0 64a30 30 0 1 1 30-30 30 30 0 0 1-30 30z" fill="#6c6aeb" data-original="#000000"></path><path d="m63 71-16-9.23a2 2 0 0 0-2 0L29 71a2 2 0 0 0-1 1.73v18.49A2 2 0 0 0 29 93l16 9.24a2 2 0 0 0 2 0L63 93a2 2 0 0 0 1-1.73V72.74A2 2 0 0 0 63 71zm-17-5.2 12.31 7.11L46 80l-12.31-7.08zM32 76.57l12 6.93V97l-12-6.94zM48 97V83.5l12-6.93v13.49z" fill="#6c6aeb" data-original="#000000"></path><path d="M78 16c-19.07 0-34 7-34 16v10a2 2 0 0 0 4 0v-2.36c5.68 5 16.86 8.36 30 8.36s24.32-3.34 30-8.36v18.58c0 4.32-8 9.76-23.26 11.8A2 2 0 0 0 85 74h.26c10.4-1.38 18.31-4.3 22.74-8.15v18.26c0 4.73-9.06 10.41-24.21 11.71a2 2 0 0 0 .17 4h.17C100.54 98.39 112 91.94 112 84.11V32c0-9-14.93-16-34-16zm0 28c-17.68 0-30-6.32-30-12s12.32-12 30-12 30 6.32 30 12-12.32 12-30 12z" fill="#6c6aeb" data-original="#000000"></path></g></svg>