<?xml version="1.0" encoding="UTF-8"?><svg id="Layer_1" xmlns="http://www.w3.org/2000/svg" viewBox="0 0 150 150"><defs><style>.cls-1{fill:#0100c0;}.cls-2{fill:#fdfdfd;}.cls-3{fill:#ce0037;}</style></defs><rect class="cls-2" y="0" width="150" height="150"/><circle class="cls-1" cx="74.7" cy="73.85" r="60"/><g><path class="cls-2" d="M37.43,115.26c-14.64-12.46-23.86-36.48-15.21-60.36,8.33-22.97,30.69-38.69,56.85-36.7,25.19,1.92,43.93,19.94,49.45,41.12-.26,.02-.5,.06-.75,.07-5.85,.04-11.7,.06-17.55,.13-.8,0-1.16-.26-1.49-.98-3.68-8.1-9.56-14.1-17.47-18.12-5.48-2.79-11.33-4.04-17.43-3.86-8.88,.25-16.73,3.26-23.48,9.12-6.63,5.75-10.69,12.94-12.33,21.53-.41,2.12-.6,4.26-.6,6.42v41.65h.01Z"/><path class="cls-2" d="M56.42,106.53c3.94,2.1,7.9,3.51,12.12,4.2,6.9,1.12,13.61,.43,20.1-2.12,4.89-1.92,9.22-4.79,12.91-8.53,3.12-3.16,5.6-6.82,7.32-10.94,.27-.65,.59-.86,1.29-.85,5.8,.04,11.62,.04,17.42,0,.89,0,1.01,.13,.74,1.04-1.91,6.42-4.78,12.38-8.77,17.74-6.47,8.68-14.81,14.98-24.91,18.92-7.95,3.1-16.22,4.12-24.68,3.5-4.37-.32-8.64-1.26-12.81-2.64-.49-.16-.75-.32-.75-.92,.03-6.4,.01-12.8,.01-19.41h0Z"/><path class="cls-3" d="M74.74,55.48c9.97-.13,18.22,8.18,18.43,17.91,.23,10.41-8.08,19.12-18.66,18.97-10.09-.15-17.94-8.01-18.21-17.96-.29-10.78,8.45-19.02,18.44-18.92Z"/></g></svg>