<?xml version="1.0" encoding="utf-8"?>
<!-- Generator: Adobe Illustrator 22.0.0, SVG Export Plug-In . SVG Version: 6.00 Build 0)  -->
<svg version="1.1" xmlns="http://www.w3.org/2000/svg" xmlns:xlink="http://www.w3.org/1999/xlink" x="0px" y="0px"
	 viewBox="0 0 256 256" style="enable-background:new 0 0 256 256;" xml:space="preserve">
<style type="text/css">
	.st0{display:none;}
	.st1{display:inline;}
	.st2{fill:none;stroke:#6B1D1D;stroke-width:0.5;stroke-miterlimit:10;}
	.st3{fill:#3A312A;}
	.st4{fill:#87796F;}
	.st5{fill:#D5DE58;}
	.st6{fill:#695B51;}
	.st7{fill:#FCE8CB;}
	.st8{fill:#F16C7A;}
	.st9{fill:#8AC6DD;}
	.st10{fill:#DECAAD;}
	.st11{fill:#D6DF58;}
	.st12{fill-rule:evenodd;clip-rule:evenodd;fill:#FCE8CB;}
	.st13{fill:#F5978A;}
	.st14{fill:#D7E057;}
	.st15{fill-rule:evenodd;clip-rule:evenodd;fill:#87796F;}
	.st16{fill:#6CA8BF;}
	.st17{fill:#B9C239;}
	.st18{fill:#D34E5C;}
	.st19{fill:#FAE6CA;}
	.st20{fill:#F8E4C8;}
	.st21{fill:#8AC5DC;}
	.st22{fill:#EF6D7A;}
	.st23{fill:#EB6E7A;}
	.st24{fill:#89C4DB;}
	.st25{fill-rule:evenodd;clip-rule:evenodd;fill:#F16C7A;}
	.st26{fill:#F7E3C7;}
	.st27{fill:#F6E2C6;}
	.st28{fill:#ED6E7A;}
	.st29{fill:#8AC3DA;}
	.st30{fill:#D5DC57;}
	.st31{fill-rule:evenodd;clip-rule:evenodd;fill:#D7E057;}
	.st32{fill-rule:evenodd;clip-rule:evenodd;fill:#F8E4C8;}
	.st33{fill:#D4DB56;}
	.st34{fill:#F59689;}
	.st35{fill:#DDC9AC;}
	.st36{fill:#D24E5C;}
	.st37{fill:#6A5C52;}
	.st38{fill:#6CA6BE;}
	.st39{fill:#B8C136;}
	.st40{fill-rule:evenodd;clip-rule:evenodd;fill:#FAE6CA;}
</style>
<g id="Layer_2" class="st0">
	<g class="st1">
		<g>
			<line class="st2" x1="0" y1="4.829" x2="256" y2="4.829"/>
			<line class="st2" x1="0" y1="16.56" x2="256" y2="16.56"/>
			<line class="st2" x1="0" y1="28.29" x2="256" y2="28.29"/>
			<line class="st2" x1="0" y1="40.021" x2="256" y2="40.021"/>
			<line class="st2" x1="0" y1="51.751" x2="256" y2="51.751"/>
			<line class="st2" x1="0" y1="63.482" x2="256" y2="63.482"/>
			<line class="st2" x1="0" y1="75.213" x2="256" y2="75.213"/>
			<line class="st2" x1="0" y1="86.943" x2="256" y2="86.943"/>
			<line class="st2" x1="0" y1="98.674" x2="256" y2="98.674"/>
			<line class="st2" x1="0" y1="110.404" x2="256" y2="110.404"/>
			<line class="st2" x1="0" y1="122.135" x2="256" y2="122.135"/>
			<line class="st2" x1="0" y1="133.865" x2="256" y2="133.865"/>
			<line class="st2" x1="0" y1="145.596" x2="256" y2="145.596"/>
			<line class="st2" x1="0" y1="157.326" x2="256" y2="157.326"/>
			<line class="st2" x1="0" y1="169.057" x2="256" y2="169.057"/>
			<line class="st2" x1="0" y1="180.788" x2="256" y2="180.788"/>
			<line class="st2" x1="0" y1="192.518" x2="256" y2="192.518"/>
			<line class="st2" x1="0" y1="204.249" x2="256" y2="204.249"/>
			<line class="st2" x1="0" y1="215.979" x2="256" y2="215.979"/>
			<line class="st2" x1="0" y1="227.71" x2="256" y2="227.71"/>
			<line class="st2" x1="0" y1="239.44" x2="256" y2="239.44"/>
			<line class="st2" x1="0" y1="251.171" x2="256" y2="251.171"/>
		</g>
		<g>
			<line class="st2" x1="251.171" y1="0" x2="251.171" y2="256"/>
			<line class="st2" x1="239.44" y1="0" x2="239.44" y2="256"/>
			<line class="st2" x1="227.71" y1="0" x2="227.71" y2="256"/>
			<line class="st2" x1="215.979" y1="0" x2="215.979" y2="256"/>
			<line class="st2" x1="204.249" y1="0" x2="204.249" y2="256"/>
			<line class="st2" x1="192.518" y1="0" x2="192.518" y2="256"/>
			<line class="st2" x1="180.788" y1="0" x2="180.788" y2="256"/>
			<line class="st2" x1="169.057" y1="0" x2="169.057" y2="256"/>
			<line class="st2" x1="157.326" y1="0" x2="157.326" y2="256"/>
			<line class="st2" x1="145.596" y1="0" x2="145.596" y2="256"/>
			<line class="st2" x1="133.865" y1="0" x2="133.865" y2="256"/>
			<line class="st2" x1="122.135" y1="0" x2="122.135" y2="256"/>
			<line class="st2" x1="110.404" y1="0" x2="110.404" y2="256"/>
			<line class="st2" x1="98.674" y1="0" x2="98.674" y2="256"/>
			<line class="st2" x1="86.943" y1="0" x2="86.943" y2="256"/>
			<line class="st2" x1="75.213" y1="0" x2="75.213" y2="256"/>
			<line class="st2" x1="63.482" y1="0" x2="63.482" y2="256"/>
			<line class="st2" x1="51.751" y1="0" x2="51.751" y2="256"/>
			<line class="st2" x1="40.021" y1="0" x2="40.021" y2="256"/>
			<line class="st2" x1="28.29" y1="0" x2="28.29" y2="256"/>
			<line class="st2" x1="16.56" y1="0" x2="16.56" y2="256"/>
			<line class="st2" x1="4.829" y1="0" x2="4.829" y2="256"/>
		</g>
	</g>
</g>
<g id="Layer_1">
	<g>
		<polygon class="st19" points="45,123.362 45,205.746 211,205.746 211,49.746 45,49.746 45,110.129 		"/>
		<path class="st3" d="M211,207.246H45c-0.829,0-1.5-0.671-1.5-1.5v-82.384c0-0.829,0.671-1.5,1.5-1.5s1.5,0.671,1.5,1.5v80.884h163
			v-153h-163v58.884c0,0.829-0.671,1.5-1.5,1.5s-1.5-0.671-1.5-1.5V49.746c0-0.829,0.671-1.5,1.5-1.5h166c0.829,0,1.5,0.671,1.5,1.5
			v156C212.5,206.574,211.829,207.246,211,207.246z"/>
		<path class="st4" d="M109.593,27.746H27.75c-6.075,0-11,4.925-11,11s4.925,11,11,11h200.5c6.075,0,11-4.925,11-11s-4.925-11-11-11
			H122.407H109.593z"/>
		<path class="st3" d="M228.25,51.246H27.75c-6.893,0-12.5-5.607-12.5-12.5s5.607-12.5,12.5-12.5h81.843c0.829,0,1.5,0.671,1.5,1.5
			s-0.671,1.5-1.5,1.5H27.75c-5.238,0-9.5,4.262-9.5,9.5s4.262,9.5,9.5,9.5h200.5c5.238,0,9.5-4.262,9.5-9.5s-4.262-9.5-9.5-9.5
			H122.407c-0.829,0-1.5-0.671-1.5-1.5s0.671-1.5,1.5-1.5H228.25c6.893,0,12.5,5.607,12.5,12.5S235.143,51.246,228.25,51.246z"/>
		<path class="st14" d="M37.707,60.569L37.707,60.569c3.911,0,7.082-3.171,7.082-7.082V24.004c0-3.911-3.17-7.082-7.082-7.082l0,0
			c-3.911,0-7.082,3.171-7.082,7.082v29.483C30.625,57.398,33.796,60.569,37.707,60.569z"/>
		<path class="st3" d="M37.707,62.068c-4.732,0-8.582-3.85-8.582-8.582V24.004c0-4.732,3.85-8.582,8.582-8.582
			c4.732,0,8.582,3.85,8.582,8.582v29.482C46.288,58.219,42.438,62.068,37.707,62.068z M37.707,18.423
			c-3.078,0-5.582,2.504-5.582,5.582v29.482c0,3.078,2.504,5.582,5.582,5.582c3.078,0,5.582-2.504,5.582-5.582V24.004
			C43.288,20.927,40.784,18.423,37.707,18.423z"/>
		<path class="st14" d="M218.293,60.569L218.293,60.569c3.911,0,7.082-3.171,7.082-7.082V24.004c0-3.911-3.171-7.082-7.082-7.082
			l0,0c-3.911,0-7.082,3.171-7.082,7.082v29.483C211.212,57.398,214.382,60.569,218.293,60.569z"/>
		<path class="st3" d="M218.294,62.068c-4.732,0-8.582-3.85-8.582-8.582V24.004c0-4.732,3.85-8.582,8.582-8.582
			c4.732,0,8.581,3.85,8.581,8.582v29.482C226.875,58.219,223.025,62.068,218.294,62.068z M218.294,18.423
			c-3.078,0-5.582,2.504-5.582,5.582v29.482c0,3.078,2.504,5.582,5.582,5.582c3.078,0,5.581-2.504,5.581-5.582V24.004
			C223.875,20.927,221.371,18.423,218.294,18.423z"/>
		<path class="st4" d="M228.25,227.746H27.75c-6.075,0-11-4.925-11-11l0,0c0-6.075,4.925-11,11-11h200.5c6.075,0,11,4.925,11,11l0,0
			C239.25,222.821,234.325,227.746,228.25,227.746z"/>
		<path class="st3" d="M228.25,229.246H27.75c-6.893,0-12.5-5.607-12.5-12.5c0-6.893,5.607-12.5,12.5-12.5h200.5
			c6.893,0,12.5,5.607,12.5,12.5C240.75,223.638,235.143,229.246,228.25,229.246z M27.75,207.246c-5.238,0-9.5,4.262-9.5,9.5
			c0,5.238,4.262,9.5,9.5,9.5h200.5c5.238,0,9.5-4.262,9.5-9.5c0-5.238-4.262-9.5-9.5-9.5H27.75z"/>
		<path class="st14" d="M37.707,238.568L37.707,238.568c3.911,0,7.082-3.171,7.082-7.082v-29.483c0-3.911-3.17-7.082-7.082-7.082
			l0,0c-3.911,0-7.082,3.171-7.082,7.082v29.483C30.625,235.398,33.796,238.568,37.707,238.568z"/>
		<path class="st3" d="M37.707,240.068c-4.732,0-8.582-3.85-8.582-8.582v-29.482c0-4.732,3.85-8.581,8.582-8.581
			c4.732,0,8.582,3.85,8.582,8.581v29.482C46.288,236.219,42.438,240.068,37.707,240.068z M37.707,196.423
			c-3.078,0-5.582,2.504-5.582,5.581v29.482c0,3.078,2.504,5.582,5.582,5.582c3.078,0,5.582-2.504,5.582-5.582v-29.482
			C43.288,198.927,40.784,196.423,37.707,196.423z"/>
		<path class="st14" d="M218.293,238.568L218.293,238.568c3.911,0,7.082-3.171,7.082-7.082v-29.483c0-3.911-3.171-7.082-7.082-7.082
			l0,0c-3.911,0-7.082,3.171-7.082,7.082v29.483C211.212,235.398,214.382,238.568,218.293,238.568z"/>
		<path class="st3" d="M218.294,240.068c-4.732,0-8.582-3.85-8.582-8.582v-29.482c0-4.732,3.85-8.581,8.582-8.581
			c4.732,0,8.581,3.85,8.581,8.581v29.482C226.875,236.219,223.025,240.068,218.294,240.068z M218.294,196.423
			c-3.078,0-5.582,2.504-5.582,5.581v29.482c0,3.078,2.504,5.582,5.582,5.582c3.078,0,5.581-2.504,5.581-5.582v-29.482
			C223.875,198.927,221.371,196.423,218.294,196.423z"/>
		<path class="st3" d="M193,75.496H63c-0.829,0-1.5-0.671-1.5-1.5c0-0.829,0.671-1.5,1.5-1.5h130c0.829,0,1.5,0.671,1.5,1.5
			C194.5,74.824,193.829,75.496,193,75.496z"/>
		<path class="st3" d="M193,96.996H63c-0.829,0-1.5-0.671-1.5-1.5c0-0.829,0.671-1.5,1.5-1.5h130c0.829,0,1.5,0.671,1.5,1.5
			C194.5,96.324,193.829,96.996,193,96.996z"/>
		<path class="st3" d="M193,118.496H63c-0.829,0-1.5-0.671-1.5-1.5c0-0.829,0.671-1.5,1.5-1.5h130c0.829,0,1.5,0.671,1.5,1.5
			C194.5,117.824,193.829,118.496,193,118.496z"/>
		<path class="st3" d="M193,139.996H63c-0.829,0-1.5-0.671-1.5-1.5s0.671-1.5,1.5-1.5h130c0.829,0,1.5,0.671,1.5,1.5
			S193.829,139.996,193,139.996z"/>
		<path class="st3" d="M193,161.496H63c-0.829,0-1.5-0.671-1.5-1.5s0.671-1.5,1.5-1.5h130c0.829,0,1.5,0.671,1.5,1.5
			S193.829,161.496,193,161.496z"/>
		<path class="st3" d="M193,182.996H63c-0.829,0-1.5-0.671-1.5-1.5s0.671-1.5,1.5-1.5h130c0.829,0,1.5,0.671,1.5,1.5
			S193.829,182.996,193,182.996z"/>
		
			<ellipse transform="matrix(0.0416 -0.9991 0.9991 0.0416 -69.5649 312.3047)" class="st8" cx="128" cy="192.412" rx="46.666" ry="46.666"/>
		<path class="st3" d="M128,240.577c-26.559,0-48.166-21.607-48.166-48.165s21.607-48.166,48.166-48.166
			s48.166,21.607,48.166,48.166S154.559,240.577,128,240.577z M128,147.246c-24.905,0-45.166,20.261-45.166,45.166
			c0,24.904,20.261,45.165,45.166,45.165s45.166-20.261,45.166-45.165C173.166,167.507,152.905,147.246,128,147.246z"/>
		<path class="st9" d="M128,155.689c-20.281,0-36.722,16.441-36.722,36.723c0,20.281,16.441,36.722,36.722,36.722
			c20.281,0,36.722-16.441,36.722-36.722C164.722,172.13,148.281,155.689,128,155.689z"/>
		<path class="st3" d="M128,230.634c-21.076,0-38.222-17.146-38.222-38.222c0-21.076,17.146-38.223,38.222-38.223
			s38.222,17.146,38.222,38.223C166.222,213.487,149.076,230.634,128,230.634z M128,157.189c-19.421,0-35.222,15.801-35.222,35.223
			c0,19.421,15.801,35.222,35.222,35.222s35.222-15.801,35.222-35.222C163.222,172.99,147.421,157.189,128,157.189z"/>
		<path class="st3" d="M128,160.14c-0.811,0-1.469,0.658-1.469,1.469v2.984c0,0.811,0.658,1.469,1.469,1.469
			c0.811,0,1.469-0.658,1.469-1.469v-2.984C129.469,160.797,128.811,160.14,128,160.14z"/>
		<path class="st3" d="M128,218.762c-0.811,0-1.469,0.658-1.469,1.469v2.984c0,0.811,0.658,1.469,1.469,1.469
			c0.811,0,1.469-0.658,1.469-1.469v-2.984C129.469,219.419,128.811,218.762,128,218.762z"/>
		<path class="st3" d="M150.82,169.592c-0.574-0.574-1.504-0.574-2.077,0l-2.11,2.11c-0.574,0.574-0.574,1.504,0,2.077
			c0.574,0.574,1.503,0.574,2.077,0l2.11-2.11C151.393,171.095,151.393,170.165,150.82,169.592z"/>
		<path class="st3" d="M109.367,211.044c-0.574-0.574-1.504-0.574-2.077,0l-2.11,2.11c-0.574,0.574-0.574,1.504,0,2.077
			c0.574,0.574,1.504,0.574,2.077,0l2.11-2.11C109.941,212.548,109.941,211.618,109.367,211.044z"/>
		<path class="st3" d="M160.272,192.412c0-0.811-0.658-1.469-1.469-1.469h-2.984c-0.811,0-1.469,0.658-1.469,1.469
			c0,0.811,0.658,1.469,1.469,1.469h2.984C159.614,193.88,160.272,193.223,160.272,192.412z"/>
		<path class="st3" d="M101.65,192.412c0-0.811-0.658-1.469-1.469-1.469h-2.984c-0.811,0-1.469,0.658-1.469,1.469
			c0,0.811,0.658,1.469,1.469,1.469h2.984C100.992,193.88,101.65,193.223,101.65,192.412z"/>
		<path class="st3" d="M150.82,215.231c0.573-0.573,0.573-1.503,0-2.077l-2.11-2.11c-0.574-0.574-1.504-0.574-2.077,0
			c-0.574,0.574-0.574,1.504,0,2.077l2.11,2.11C149.316,215.805,150.246,215.805,150.82,215.231z"/>
		<path class="st3" d="M109.367,173.779c0.574-0.574,0.574-1.504,0-2.077l-2.11-2.11c-0.574-0.574-1.504-0.574-2.077,0
			c-0.574,0.574-0.574,1.504,0,2.077l2.11,2.11C107.864,174.352,108.794,174.353,109.367,173.779z"/>
		<path class="st3" d="M128,194.372c-0.012,0-0.024,0-0.036-0.001c-0.41-0.01-0.798-0.187-1.074-0.49l-10.087-11.096
			c-0.557-0.613-0.512-1.562,0.101-2.119s1.562-0.511,2.119,0.101l9.029,9.932l15.532-15.532c0.586-0.586,1.535-0.586,2.121,0
			c0.586,0.585,0.586,1.536,0,2.121l-16.644,16.644C128.779,194.214,128.397,194.372,128,194.372z"/>
		<path class="st14" d="M131.867,192.412c0,2.135-1.731,3.867-3.867,3.867c-2.136,0-3.867-1.731-3.867-3.867
			c0-2.136,1.731-3.867,3.867-3.867C130.136,188.545,131.867,190.276,131.867,192.412z"/>
		<path class="st3" d="M128,197.778c-2.959,0-5.367-2.408-5.367-5.367s2.408-5.367,5.367-5.367c2.959,0,5.367,2.408,5.367,5.367
			S130.959,197.778,128,197.778z M128,190.045c-1.305,0-2.367,1.061-2.367,2.367c0,1.305,1.062,2.367,2.367,2.367
			c1.305,0,2.367-1.062,2.367-2.367C130.367,191.106,129.305,190.045,128,190.045z"/>
		<path class="st10" d="M194.5,51.246v153h15v-153H194.5z"/>
		<rect x="194.71" y="29.246" class="st6" width="15" height="19"/>
		<rect x="194.71" y="207.246" class="st6" width="15" height="19"/>
	</g>
</g>
</svg>
