<svg id="Layer_1" data-name="Layer 1" xmlns="http://www.w3.org/2000/svg" viewBox="0 0 326.12 117.71"><defs><style>.cls-1{fill:#fdfdfd;}.cls-2{fill:#ee0001;}.cls-3{font-size:15.61px;fill:#c1c1c1;font-family:Helvetica-Light, Helvetica;font-weight:300;letter-spacing:0.2em;}</style></defs><path class="cls-1" d="M26.69,96.64C12.88,84.89,4.19,62.24,12.35,39.72a52.57,52.57,0,0,1,100.23,4.16c-.24,0-.47.06-.71.07-5.51,0-11,0-16.55.12a1.3,1.3,0,0,1-1.4-.93A35,35,0,0,0,77.44,26.05,33.75,33.75,0,0,0,61,22.41,34.28,34.28,0,0,0,38.87,31,34.71,34.71,0,0,0,27.24,51.31a33.22,33.22,0,0,0-.56,6q0,18.84,0,37.67Z"/><path class="cls-1" d="M44.59,88.41a36.51,36.51,0,0,0,11.43,4,35.46,35.46,0,0,0,19-2,35,35,0,0,0,12.16-8A32.44,32.44,0,0,0,94.05,72a1.09,1.09,0,0,1,1.21-.8q8.22,0,16.43,0c.85,0,1,.13.7,1a52.64,52.64,0,0,1-31.75,34.57,52.53,52.53,0,0,1-23.28,3.29,50.1,50.1,0,0,1-12.08-2.48c-.46-.16-.71-.3-.71-.88C44.6,100.68,44.59,94.65,44.59,88.41Z"/><path class="cls-2" d="M61.86,40.27A17.39,17.39,0,1,1,44.48,58.11,17.42,17.42,0,0,1,61.86,40.27Z"/><path class="cls-1" d="M229.15,51.46c-.14-8.09,6.41-14.54,15-14.39,8.3.14,14.56,6.19,14.54,14.32,0,8.5-6.38,14.74-15,14.73A14.33,14.33,0,0,1,229.15,51.46Zm14.64,8.27c4,0,7.56-2.88,7.67-8.34a7.63,7.63,0,1,0-15.23,0C236.33,56.61,239.75,59.69,243.79,59.73Z"/><path class="cls-1" d="M276.29,66a14.29,14.29,0,0,1-15-14.42c0-8.36,6.14-14.4,14.6-14.55S290.67,43,290.8,51.14A14.21,14.21,0,0,1,276.29,66Zm.11-6.3a9.94,9.94,0,0,0,1.3-.21c4.73-1.25,7.15-6.51,5.25-11.39A7.47,7.47,0,0,0,273,44c-3.59,1.58-5.35,5.65-4.24,9.84A7.54,7.54,0,0,0,276.4,59.73Z"/><path class="cls-1" d="M124.91,51.09c.19-3.57.06-7.45.09-11.32,0-1.28.63-2.15,1.72-2.17,3.71,0,7.44-.22,11.13.06,4.14.32,6.85,3,7.71,7A10.4,10.4,0,0,1,143.44,54a8.34,8.34,0,0,1-6.29,2.87c-1.48.08-3,.06-4.44,0-.84,0-1.18.11-1.13,1.08.1,1.79,0,3.59,0,5.39,0,1.51-.51,2.1-2,2.24a21.22,21.22,0,0,1-2.39.09c-1.6,0-2.32-.75-2.32-2.36C124.9,59.31,124.91,55.35,124.91,51.09Zm9.19-7.66a9.43,9.43,0,0,1-1.19,0c-.89-.14-1.18.17-1.12,1.09.09,1.31,0,2.63,0,3.94,0,2.63,0,2.63,2.68,2.6,1.86,0,3.42-.44,4-2.5.75-2.47-.49-5.16-3.24-5.13Z"/><path class="cls-1" d="M167.34,65.54l-.61,0a2.46,2.46,0,0,1-2.94-2c-.32-1.06-.66-2.13-.9-3.22-.14-.6-.43-.73-1-.73q-3.65,0-7.29-.1c-.72,0-1.07.19-1.22.93-.23,1.08-.58,2.14-.91,3.2a2.34,2.34,0,0,1-2.54,1.86c-.88,0-1.76,0-2.64,0-1.29-.07-1.87-.87-1.46-2.09q4.11-12.12,8.27-24.22a2.3,2.3,0,0,1,2.46-1.66c1,0,1.91,0,2.87,0,1.81,0,2.48.48,3.08,2.19,1,2.78,1.93,5.55,2.87,8.33q2.45,7.2,4.86,14.41c.83,2.47.42,3-2.21,3Zm-11.8-11.39c1.54,0,3,0,4.41,0,.75,0,.84-.18.65-.86-.82-2.84-1.73-5.66-2.38-8.58C157.45,47.86,156.47,50.91,155.54,54.15Z"/><path class="cls-1" d="M202.06,51.52A14.16,14.16,0,0,1,214,37.35a16,16,0,0,1,11.55,2.35c1.17.77,1.33,1.33.71,2.57-.14.28-.28.57-.44.84-1.24,2.07-1.66,2.56-4.18,1.21a9,9,0,0,0-9.27,0c-3.1,1.83-3.82,5.38-3.45,8.33s1.58,5.28,4.23,6.54a9.35,9.35,0,0,0,9.41-.87c1.79-1.13,2.21-1.09,3.49.52,1.89,2.38,1.76,3.07-.76,4.75-5.24,3.49-13.36,3.2-18-.71A14.19,14.19,0,0,1,202.06,51.52Z"/><path class="cls-1" d="M178,59.06A6.36,6.36,0,0,1,178,58c.5-3.07-.77-5.59-2.29-8.11-1.95-3.24-3.75-6.57-5.57-9.89-.88-1.6-.33-2.41,1.53-2.43H172c4.81,0,4.13-.36,6.29,4.13a50.92,50.92,0,0,1,2.65,5.94c.06.19.1.51.41.53s.46-.41.56-.67c1.11-2.76,2.39-5.44,3.63-8.15a2.84,2.84,0,0,1,2.86-1.88c.88,0,1.76,0,2.63,0,1.92,0,2.48.93,1.56,2.59q-3.51,6.34-7.1,12.64a4.88,4.88,0,0,0-.71,2.59c.06,2.6,0,5.19,0,7.79,0,1.88-.62,2.48-2.5,2.47-.76,0-1.52,0-2.28,0A1.81,1.81,0,0,1,178,63.62C178,62.1,178,60.58,178,59.06Z"/><path class="cls-1" d="M295,51.51V40.13c0-2,.65-2.65,2.65-2.65,4.08,0,4.16.06,4.16,4.13,0,5.71,0,11.42,0,17.14,0,.82.18,1.08,1,1.06,2.56-.06,5.12,0,7.68,0,1,0,2.2,0,2.63,1.18a4.46,4.46,0,0,1-.21,3.93,2,2,0,0,1-1.81.72c-4.59,0-9.19,0-13.79,0-1.58,0-2.31-.76-2.32-2.37C295,59.34,295.05,55.43,295,51.51Z"/><path class="cls-2" d="M195.79,59.23c.84,0,2.13-.19,2.61,1.09a5.55,5.55,0,0,1-.17,4.61,1.31,1.31,0,0,1-.86.57,7.61,7.61,0,0,1-3.52.07,1.68,1.68,0,0,1-1.44-1.37,7.75,7.75,0,0,1,0-3.42C192.63,59.49,193.31,59.23,195.79,59.23Z"/><text class="cls-3" transform="translate(122.9 91.25)">Pay to earn is cool!</text></svg>